<svg width="517" height="369" viewBox="0 0 517 369" fill="none" xmlns="http://www.w3.org/2000/svg">
<g filter="url(#filter0_d_1454_1482)">
<rect x="4" width="508.524" height="360.149" fill="white"/>
</g>
<rect x="4" width="508.524" height="59.3503" fill="#CCCCCC"/>
<rect x="4" width="508.524" height="22.9308" fill="#2A75DB"/>
<circle cx="20.1863" cy="12.1394" r="4.04661" fill="white"/>
<circle cx="30.9773" cy="12.1394" r="4.04661" fill="white"/>
<circle cx="41.7683" cy="12.1394" r="4.04661" fill="white"/>
<rect x="13.4419" y="31.0244" width="488.291" height="21.5819" rx="10.791" fill="white" fill-opacity="0.6"/>
<rect x="4" y="59.3506" width="508.524" height="137.585" fill="#EAEAEA"/>
<rect x="30.9775" y="207.726" width="145.678" height="99.8164" fill="#EAEAEA"/>
<rect x="30.9775" y="315.635" width="133.538" height="9.4421" fill="#EAEAEA"/>
<rect x="184.749" y="315.635" width="133.538" height="9.4421" fill="#EAEAEA"/>
<rect x="339.869" y="315.635" width="133.538" height="9.4421" fill="#EAEAEA"/>
<rect x="30.9775" y="329.124" width="120.05" height="9.4421" fill="#EAEAEA"/>
<rect x="184.749" y="329.124" width="120.05" height="9.4421" fill="#EAEAEA"/>
<rect x="339.869" y="329.124" width="120.05" height="9.4421" fill="#EAEAEA"/>
<rect x="30.9775" y="342.612" width="110.607" height="9.4421" fill="#EAEAEA"/>
<rect x="184.749" y="342.612" width="110.607" height="9.4421" fill="#EAEAEA"/>
<rect x="339.869" y="342.612" width="110.607" height="9.4421" fill="#EAEAEA"/>
<rect x="184.749" y="207.726" width="147.027" height="99.8164" fill="#EAEAEA"/>
<rect x="339.869" y="207.726" width="145.678" height="99.8164" fill="#EAEAEA"/>
<rect x="4" width="509" height="360" fill="black" fill-opacity="0.3"/>
<defs>
<filter id="filter0_d_1454_1482" x="0" y="0" width="516.524" height="368.148" filterUnits="userSpaceOnUse" color-interpolation-filters="sRGB">
<feFlood flood-opacity="0" result="BackgroundImageFix"/>
<feColorMatrix in="SourceAlpha" type="matrix" values="0 0 0 0 0 0 0 0 0 0 0 0 0 0 0 0 0 0 127 0" result="hardAlpha"/>
<feOffset dy="4"/>
<feGaussianBlur stdDeviation="2"/>
<feComposite in2="hardAlpha" operator="out"/>
<feColorMatrix type="matrix" values="0 0 0 0 0 0 0 0 0 0 0 0 0 0 0 0 0 0 0.25 0"/>
<feBlend mode="normal" in2="BackgroundImageFix" result="effect1_dropShadow_1454_1482"/>
<feBlend mode="normal" in="SourceGraphic" in2="effect1_dropShadow_1454_1482" result="shape"/>
</filter>
</defs>
</svg>
