<svg width="19" height="24" viewBox="0 0 19 24" fill="none" xmlns="http://www.w3.org/2000/svg">
<g clip-path="url(#clip0_3598_1908)">
<path d="M4.69285 20.6924C7.60094 21.9527 10.4825 21.9527 13.39 20.6943C13.6121 21.3532 13.8337 22.0121 14.0583 22.6779C14.2843 22.6779 14.4963 22.6722 14.7084 22.6791C15.0889 22.6924 15.3716 22.9764 15.3723 23.3367C15.3723 23.6984 15.0914 23.9798 14.7109 23.9988C14.6718 24.0007 14.632 24 14.5929 24C10.8946 24 7.19641 24.0019 3.49818 23.9937C3.32084 23.9937 3.11952 23.9394 2.97121 23.8441C2.74149 23.6971 2.66702 23.4484 2.73771 23.1783C2.80965 22.9 3.00087 22.7397 3.28045 22.6854C3.33409 22.6754 3.39026 22.6779 3.44517 22.6772C3.83897 22.6718 4.09877 22.4787 4.22457 22.0979C4.3773 21.6366 4.53192 21.1752 4.69285 20.6924Z" fill="white"/>
<path d="M14.9791 18.1055C13.4449 19.4037 11.71 20.1263 9.72015 20.2885V14.1271C9.98143 14.0129 10.2345 13.8892 10.4977 13.7958C10.562 13.773 10.6838 13.8248 10.7406 13.8816C11.8356 14.9671 12.9249 16.0589 14.0154 17.1488C14.3316 17.4643 14.649 17.7786 14.9791 18.1062V18.1055Z" fill="white"/>
<path d="M2.21391 5.27344C2.31804 5.40534 2.39566 5.52588 2.49475 5.62496C3.79418 6.92881 5.09487 8.23139 6.40061 9.52893C6.51736 9.64505 6.55144 9.72583 6.46056 9.88423C6.34065 10.0931 6.26934 10.3298 6.16963 10.5715H0.00128174C0.159056 8.58165 0.884187 6.84676 2.21391 5.27344Z" fill="white"/>
<path d="M15.8929 5.32648C17.0276 6.42711 18.1144 9.055 18.0658 10.5684H11.9252C11.8116 10.3084 11.6879 10.0553 11.5945 9.79212C11.5718 9.72775 11.6236 9.60595 11.6797 9.54852C12.7987 8.42012 13.9239 7.29802 15.0473 6.17467C15.33 5.89194 15.6115 5.60858 15.8929 5.32648Z" fill="white"/>
<path d="M6.16077 11.9177C6.27942 12.1878 6.40059 12.4415 6.49967 12.704C6.5205 12.7595 6.482 12.8656 6.4353 12.9135C6.04591 13.3143 5.64895 13.7068 5.25389 14.1013C4.28578 15.0687 3.31768 16.0362 2.34958 17.0037C2.30035 17.0529 2.24797 17.0996 2.17602 17.1678C0.884798 15.6468 0.162823 13.9107 0 11.9177H6.16077Z" fill="white"/>
<path d="M11.9195 11.9145H18.0866C17.9282 13.9062 17.2031 15.6411 15.915 17.1665C15.8431 17.0996 15.785 17.0485 15.7301 16.9942C14.3833 15.6487 13.0385 14.3019 11.6886 12.9596C11.5731 12.8447 11.5352 12.7639 11.6273 12.6043C11.7473 12.3954 11.8192 12.1587 11.9195 11.9145Z" fill="white"/>
<path d="M8.37021 20.2885C6.38352 20.1238 4.64863 19.4044 3.1239 18.1169C3.17818 18.0563 3.22046 18.0027 3.26905 17.9547C4.62591 16.5973 5.98403 15.241 7.33774 13.8804C7.44692 13.7706 7.52202 13.7359 7.67411 13.8217C7.88995 13.9435 8.13166 14.0198 8.37021 14.1196V20.2885Z" fill="white"/>
<path d="M9.70562 8.3658C9.70562 7.28915 9.70373 6.20366 9.71067 5.11817C9.71067 5.06011 9.76999 4.97365 9.82363 4.94967C10.3228 4.72689 10.6624 4.35518 10.8927 3.86608C11.0801 3.46785 11.2796 3.07531 11.4872 2.68655C11.5188 2.62723 11.6361 2.55844 11.6898 2.57485C12.9015 2.94341 13.9908 3.53601 14.9646 4.37853C14.9052 4.44227 14.8547 4.50033 14.8005 4.5546C13.4543 5.90199 12.1057 7.24749 10.7646 8.59994C10.6352 8.73057 10.5456 8.74004 10.3878 8.65358C10.1834 8.54061 9.95553 8.4693 9.70562 8.36643V8.3658Z" fill="white"/>
<path d="M8.37024 8.36394C8.10644 8.47943 7.85905 8.59745 7.60219 8.69148C7.53971 8.7142 7.42422 8.68139 7.3731 8.63279C6.97677 8.24971 6.59117 7.85654 6.20116 7.46715C5.23873 6.5041 4.27568 5.54168 3.31325 4.57862C3.25267 4.51804 3.19524 4.45493 3.08606 4.33944C3.64963 3.97151 4.17344 3.58086 4.74143 3.27351C5.24946 2.99835 5.80861 2.81975 6.34063 2.58877C6.49777 2.52061 6.56151 2.57741 6.62652 2.7131C6.8272 3.13088 7.04115 3.54236 7.24499 3.95888C7.46146 4.39939 7.78836 4.72188 8.23266 4.93393C8.29829 4.96548 8.37529 5.06204 8.37592 5.12957C8.38475 6.19171 8.3816 7.25447 8.38033 8.31724C8.38033 8.33996 8.37024 8.36268 8.36961 8.36521L8.37024 8.36394Z" fill="white"/>
<path d="M9.05626 0.00190168C9.44944 0.00190168 9.84324 -0.002516 10.2364 0.00316388C10.7747 0.010737 11.0865 0.486584 10.8536 0.968112C10.4605 1.7816 10.0515 2.58688 9.64571 3.39342C9.52264 3.63765 9.32132 3.77776 9.04364 3.77776C8.76596 3.77776 8.56527 3.63702 8.44221 3.39216C8.0402 2.59193 7.63629 1.79296 7.24312 0.988307C7.00141 0.492895 7.30434 0.0101059 7.85276 0.00253278C8.25414 -0.0031471 8.65489 0.00127059 9.05626 0.00127059V0.00190168Z" fill="white"/>
<path d="M9.03921 12.8504C8.1563 12.8485 7.43622 12.1246 7.43811 11.2405C7.44001 10.3569 8.16324 9.63813 9.04804 9.64002C9.93158 9.64191 10.6504 10.3645 10.6491 11.2493C10.6472 12.1322 9.92338 12.8523 9.03921 12.8504Z" fill="white"/>
</g>
<defs>
<clipPath id="clip0_3598_1908">
<rect width="18.0866" height="24" fill="white"/>
</clipPath>
</defs>
</svg>
