<svg width="37" height="38" viewBox="0 0 37 38" fill="none" xmlns="http://www.w3.org/2000/svg">
<g clip-path="url(#clip0_372_1280)">
<path d="M36.652 5.7476C36.3673 5.39927 35.9243 5.1776 35.4656 5.1776H8.93758L8.35229 3.02427C7.86191 1.21927 6.18512 -0.0315672 4.38179 9.95162e-05L1.53442 0.0475995C0.664387 0.0634328 0 0.7601 0 1.59927C0 2.45427 0.711843 3.11927 1.53442 3.11927L4.39761 3.07177C4.85635 3.07177 5.236 3.3726 5.34673 3.8001L6.18512 6.91927C6.18512 6.91927 6.18512 6.9826 6.18512 7.01427L9.3805 22.6101L7.41898 26.2518C6.96024 27.0909 6.99188 28.0726 7.46644 28.8959C7.95682 29.7034 8.81103 30.1943 9.74434 30.1943H31.2103C32.0646 30.1943 32.7448 29.4976 32.7448 28.6584C32.7448 27.8193 32.0487 27.1226 31.2103 27.1226H10.4878L11.959 24.3993H32.1753C32.903 24.3993 33.5357 23.8926 33.6939 23.1643L37 7.01427C37.0949 6.57093 37 6.09593 36.6836 5.73177L36.652 5.7476ZM26.2116 13.6009L21.3395 16.7834C21.0705 16.9418 20.7858 17.0368 20.5011 17.0368C20.0107 17.0368 19.5203 16.7834 19.2198 16.3559L17.891 14.4084C17.4164 13.7118 17.5904 12.7618 18.3023 12.2709C18.9983 11.7801 19.9632 11.9701 20.4378 12.6668L20.8965 13.3476L24.519 11.0043C25.2309 10.5451 26.18 10.7351 26.6546 11.4476C27.1133 12.1759 26.9235 13.1259 26.1958 13.5851L26.2116 13.6009Z" fill="#B48FC1"/>
<path d="M29.2014 34.8811C29.2014 36.6069 27.7935 38.0003 26.0851 38.0003C24.3767 38.0003 22.953 36.5911 22.953 34.8811C22.953 33.1711 24.3609 31.7461 26.0851 31.7461C27.8094 31.7461 29.2014 33.1553 29.2014 34.8811Z" fill="#B48FC1"/>
<path d="M18.1441 34.8811C18.1441 36.6069 16.7362 38.0003 15.0278 38.0003C13.3194 38.0003 11.8957 36.5911 11.8957 34.8811C11.8957 33.1711 13.3036 31.7461 15.0278 31.7461C16.752 31.7461 18.1441 33.1553 18.1441 34.8811Z" fill="#B48FC1"/>
</g>
<defs>
<clipPath id="clip0_372_1280">
<rect width="37" height="38" fill="white"/>
</clipPath>
</defs>
</svg>
