<svg width="38" height="38" viewBox="0 0 38 38" fill="none" xmlns="http://www.w3.org/2000/svg">
<path d="M19.0129 3.80029C10.6276 3.80029 3.80023 10.6276 3.80023 19.013C3.80023 27.3856 10.6276 34.2003 19.0129 34.2003C27.3856 34.2003 34.2002 27.3856 34.2002 19.013C34.2002 10.6276 27.3856 3.80029 19.0129 3.80029ZM19.0002 30.1169C12.8725 30.1169 7.88357 25.1416 7.88357 19.0139C7.88357 12.8862 12.8725 7.88371 19.0002 7.88371C25.1279 7.88371 30.1169 12.8862 30.1169 19.0139C30.1169 25.1416 25.1279 30.1169 19.0002 30.1169Z" fill="#C9A9D5"/>
<path d="M25.628 17.1339L18.8457 23.2411C18.0921 23.9196 16.9617 23.9196 16.2081 23.2411L12.4402 19.8482C11.6866 19.1696 11.6866 18.1518 12.4402 17.4732C13.1938 16.7946 14.3242 16.7946 15.0777 17.4732L17.5269 19.6786L22.9904 14.7589C23.744 14.0804 24.8744 14.0804 25.628 14.7589C26.3815 15.4375 26.1932 16.4554 25.628 17.1339Z" fill="#C9A9D5"/>
</svg>
