<svg width="28" height="28" viewBox="0 0 28 28" fill="none" xmlns="http://www.w3.org/2000/svg">
<path d="M7.9 26H20.1C22.1 26 23.7 24.4 23.7 22.4V5.6C23.7 3.6 22.1 2 20.1 2H12.5C12 2 11.5 2.1 11 2.3C10.6 2.5 10.3 2.7 10 3L5.4 7.6C5.1 7.9 4.9 8.3 4.7 8.6C4.5 9.1 4.4 9.6 4.4 10.1V22.3C4.3 24.4 5.9 26 7.9 26ZM10 9.3H18C18.6 9.3 19 9.7 19 10.3C19 10.9 18.6 11.3 18 11.3H10C9.4 11.3 9 10.9 9 10.3C9 9.7 9.5 9.3 10 9.3ZM10 13.8H18C18.6 13.8 19 14.2 19 14.8C19 15.4 18.6 15.8 18 15.8H10C9.4 15.8 9 15.4 9 14.8C9 14.2 9.5 13.8 10 13.8ZM10 18.2H18C18.6 18.2 19 18.6 19 19.2C19 19.8 18.6 20.2 18 20.2H10C9.4 20.2 9 19.8 9 19.2C9 18.6 9.5 18.2 10 18.2Z" fill="white"/>
</svg>
