<svg width="24" height="24" viewBox="0 0 24 24" fill="none" xmlns="http://www.w3.org/2000/svg">
<path d="M22.6129 13.2243L21.2084 6.23765C20.8747 4.60807 19.3207 3.66788 17.8129 3.97984L7.19953 6.10429C5.6621 6.42608 4.62944 7.89887 4.94178 9.49986L6.34624 16.4865C6.64369 18.0035 8.13734 19.059 9.7418 18.7532L20.3462 16.6199C21.8817 16.3263 22.9233 14.8071 22.6129 13.2243ZM14.3462 11.571C14.1371 11.8916 13.7014 12.0122 13.3329 11.7754L7.59955 7.83764L18.1151 5.73098L14.3462 11.571Z" fill="#333333"/>
<path d="M1.36836 12.4442C1.23034 11.9728 1.50031 11.4789 1.97166 11.3413L3.14267 10.9984C3.61576 10.8565 4.10795 11.1308 4.24597 11.6013C4.38399 12.0726 4.11402 12.5665 3.64267 12.7041L2.47166 13.047C2.00493 13.1856 1.50747 12.9183 1.36836 12.4442Z" fill="#333333"/>
<path d="M1.36836 16.1138C1.23034 15.6425 1.50031 15.1485 1.97166 15.0109L3.14267 14.6681C3.61576 14.5283 4.10795 14.8 4.24597 15.2709C4.38399 15.7423 4.11402 16.2362 3.64267 16.3738L2.47166 16.7167C2.00493 16.8552 1.50747 16.5879 1.36836 16.1138Z" fill="#333333"/>
<path d="M2.48378 19.4399C2.34576 18.9685 2.61659 18.475 3.08707 18.337L4.64784 17.8804C5.12006 17.742 5.61312 18.0132 5.75114 18.4841C5.88916 18.9555 5.61832 19.449 5.14784 19.587L3.58707 20.0436C3.11421 20.1815 2.62175 19.9107 2.48378 19.4399Z" fill="#333333"/>
</svg>
