<svg width="24" height="24" viewBox="0 0 24 24" fill="none" xmlns="http://www.w3.org/2000/svg">
  <path d="M18.9999 2.40039H4.9999C3.56787 2.40039 2.3999 3.56841 2.3999 5.00039V7.37642H21.5999V5.00039C21.5999 3.56841 20.4319 2.40039 18.9999 2.40039ZM5.20791 5.68843C4.75991 5.68843 4.3999 5.33643 4.3999 4.89644C4.3999 4.44839 4.75991 4.08843 5.20791 4.08843C5.6479 4.08843 5.9999 4.44839 5.9999 4.89644C5.9999 5.33643 5.6479 5.68843 5.20791 5.68843ZM8.00791 5.68843C7.55991 5.68843 7.1999 5.33643 7.1999 4.89644C7.1999 4.44839 7.55991 4.08843 8.00791 4.08843C8.4479 4.08843 8.7999 4.44839 8.7999 4.89644C8.7999 5.33643 8.4479 5.68843 8.00791 5.68843ZM10.8079 5.68843C10.3599 5.68843 9.9999 5.33643 9.9999 4.89644C9.9999 4.44839 10.3599 4.08843 10.8079 4.08843C11.2479 4.08843 11.5999 4.44839 11.5999 4.89644C11.5999 5.33643 11.2479 5.68843 10.8079 5.68843Z" fill="currentColor"/>
  <path d="M2.3999 19.0076C2.3999 20.4396 3.56787 21.5996 4.9999 21.5996H18.9999C20.4319 21.5996 21.5999 20.4396 21.5999 19.0076V8.97559H2.3999V19.0076ZM7.9439 13.7436L9.59189 12.0956C9.71987 11.9756 9.88789 11.9036 10.0639 11.9036H10.8159C10.9119 11.9036 10.9919 11.9756 11.0079 12.0636C11.1039 12.5276 11.5119 12.8796 11.9999 12.8796C12.4959 12.8796 12.9039 12.5276 12.9919 12.0636C13.0159 11.9756 13.0959 11.9036 13.1919 11.9036H13.8479C14.0799 11.9036 14.2959 11.9916 14.4639 12.1596L16.0559 13.7436C16.1599 13.8636 16.2239 14.0076 16.2239 14.1516C16.2239 14.3036 16.1599 14.4476 16.0559 14.5516L15.4479 15.1596C15.3439 15.2796 15.1999 15.3276 15.0479 15.3276C14.8879 15.3276 14.7439 15.2716 14.6399 15.1596L14.4079 14.9436V17.8796C14.4079 18.3116 14.0559 18.6716 13.6159 18.6716H10.3759C9.93589 18.6716 9.58389 18.3116 9.58389 17.8796V14.9436L9.35991 15.1596C9.13589 15.3836 8.77588 15.3836 8.5519 15.1596L7.9439 14.5516C7.71987 14.3356 7.71987 13.9756 7.9439 13.7436Z" fill="currentColor"/>
</svg>
