<svg width="24" height="24" viewBox="0 0 24 24" fill="none" xmlns="http://www.w3.org/2000/svg">
<g clip-path="url(#clip0_370_1857)">
<path d="M12.0001 5.37598C5.76006 5.37598 0.864055 11.136 0.672055 11.424C0.384055 11.808 0.384055 12.288 0.672055 12.672C0.864055 12.96 5.76006 18.72 12.0001 18.72C18.2401 18.72 23.0401 12.96 23.3281 12.672C23.6161 12.288 23.6161 11.808 23.3281 11.424C23.0401 11.136 18.2401 5.37598 12.0001 5.37598ZM12.0001 16.608C9.50406 16.608 7.39206 14.496 7.39206 12C7.39206 9.40798 9.50406 7.39198 12.0001 7.39198C14.5921 7.39198 16.6081 9.40798 16.6081 12C16.6081 14.496 14.5921 16.608 12.0001 16.608Z" fill="#2A75DB"/>
<path d="M11.9997 9.79199H11.9037C11.9997 9.98399 11.9997 10.272 11.9997 10.464C11.9997 11.616 11.0397 12.576 9.8877 12.672C10.1757 13.632 11.1357 14.208 11.9997 14.208C13.2477 14.208 14.2077 13.248 14.2077 12C14.2077 10.752 13.2477 9.79199 11.9997 9.79199Z" fill="#2A75DB"/>
<path d="M1.44047 17.376C0.864469 17.376 0.480469 17.76 0.480469 18.336V22.56C0.480469 23.136 0.864469 23.52 1.44047 23.52H5.66447C6.24047 23.52 6.62447 23.136 6.62447 22.56C6.62447 21.984 6.24047 21.6 5.66447 21.6H2.40047V18.336C2.40047 17.76 2.01647 17.376 1.44047 17.376Z" fill="#2A75DB"/>
<path d="M1.44047 6.62398C2.01647 6.62398 2.40047 6.23998 2.40047 5.66398V2.39998H5.66447C6.24047 2.39998 6.62447 2.01598 6.62447 1.43998C6.62447 0.86398 6.24047 0.47998 5.66447 0.47998H1.44047C0.864469 0.47998 0.480469 0.86398 0.480469 1.43998V5.66398C0.480469 6.23998 0.864469 6.62398 1.44047 6.62398Z" fill="#2A75DB"/>
<path d="M22.56 6.62398C23.136 6.62398 23.52 6.23998 23.52 5.66398V1.43998C23.52 0.86398 23.136 0.47998 22.56 0.47998H18.336C17.76 0.47998 17.376 0.86398 17.376 1.43998C17.376 2.01598 17.76 2.39998 18.336 2.39998H21.6V5.66398C21.6 6.23998 21.984 6.62398 22.56 6.62398Z" fill="#2A75DB"/>
<path d="M22.56 23.52C23.136 23.52 23.52 23.136 23.52 22.56V18.336C23.52 17.76 23.136 17.376 22.56 17.376C21.984 17.376 21.6 17.76 21.6 18.336V21.6H18.336C17.76 21.6 17.376 21.984 17.376 22.56C17.376 23.136 17.76 23.52 18.336 23.52H22.56Z" fill="#2A75DB"/>
</g>
<defs>
<clipPath id="clip0_370_1857">
<rect width="24" height="24" fill="white"/>
</clipPath>
</defs>
</svg>
