<svg width="38" height="38" viewBox="0 0 38 38" fill="none" xmlns="http://www.w3.org/2000/svg">
<path d="M32.7412 0H5.25878C2.36014 0 0 2.35915 0 5.25658V32.7276C0 35.6409 2.36014 38 5.25878 38H32.7412C35.6399 38 38 35.6409 38 32.7276V5.25658C38 2.35915 35.6399 0 32.7412 0ZM17.107 4.19587C17.9783 4.19587 18.691 4.90829 18.691 5.77921C18.691 6.65012 17.9783 7.36254 17.107 7.36254C16.2201 7.36254 15.523 6.65012 15.523 5.77921C15.523 4.90829 16.2201 4.19587 17.107 4.19587ZM11.563 4.19587C12.4343 4.19587 13.147 4.90829 13.147 5.77921C13.147 6.65012 12.4343 7.36254 11.563 7.36254C10.6761 7.36254 9.97905 6.65012 9.97905 5.77921C9.97905 4.90829 10.6761 4.19587 11.563 4.19587ZM6.32012 4.19587C7.20706 4.19587 7.90411 4.90829 7.90411 5.77921C7.90411 6.65012 7.20706 7.36254 6.33598 7.36254H6.32012C5.44904 7.36254 4.73613 6.65012 4.73613 5.77921C4.73613 4.90829 5.44904 4.19587 6.32012 4.19587ZM34.832 32.5532C34.832 33.8041 33.8182 34.8175 32.5668 34.8175H5.43318C4.18177 34.8175 3.16799 33.8041 3.16799 32.5532V13.0625C3.16799 11.8116 4.18177 10.7982 5.43318 10.7982H20.6078C21.1146 10.7982 21.574 10.5451 21.8431 10.1175L22.9521 8.29665C23.3639 7.61573 24.1083 7.20405 24.8845 7.20405H32.5668C33.8182 7.20405 34.832 8.2176 34.832 9.4683V32.5532ZM28.0051 17.7491C27.229 17.3533 26.2784 17.6859 25.8824 18.4617L23.2848 23.7025L20.7027 18.4617C20.4336 17.9232 19.879 17.5908 19.2773 17.5908C18.6752 17.5908 18.121 17.9232 17.8516 18.4617L15.2697 23.7025L12.672 18.4617C12.276 17.6859 11.3256 17.3533 10.5495 17.7491C9.75746 18.1293 9.44054 19.0791 9.83654 19.8707L13.8441 27.9776C14.1134 28.5159 14.6519 28.8641 15.2539 28.8641C15.8558 28.8641 16.4102 28.5159 16.6793 27.9776L19.2773 22.7366L21.8749 27.9776C22.1442 28.5159 22.6827 28.8641 23.2848 28.8641C23.8866 28.8641 24.4411 28.5159 24.7103 27.9776L28.7337 19.8707C29.1138 19.0791 28.7971 18.1293 28.0051 17.7491Z" fill="#B48FC1"/>
</svg>
