<svg width="16" height="16" viewBox="0 0 16 16" fill="none" xmlns="http://www.w3.org/2000/svg">
<g clip-path="url(#clip0_2403_38)">
<path d="M13.1281 0L12.8658 1.14843C12.6888 1.92524 12.1059 2.53304 11.3585 2.71723L10.2552 2.99025L11.3585 3.26327C12.1049 3.44745 12.6888 4.05417 12.8658 4.83207L13.1281 5.9805L13.3904 4.83207C13.5674 4.05525 14.1503 3.44745 14.8977 3.26327L16 2.98917L14.8966 2.71614C14.1503 2.53196 13.5663 1.92416 13.3894 1.14735L13.1281 0Z" fill="#333333"/>
<path d="M6.86279 1.71484L6.2372 4.45807C5.81354 6.31506 4.42079 7.76577 2.63561 8.20672L-9.53674e-07 8.85786L2.63561 9.50899C4.41975 9.94995 5.81354 11.3996 6.2372 13.2576L6.86279 16.0009L7.48839 13.2576C7.91204 11.4007 9.30479 9.94995 11.09 9.50899L13.7256 8.85786L11.09 8.20672C9.30583 7.76577 7.91204 6.31614 7.48839 4.45807L6.86279 1.71484Z" fill="#333333"/>
</g>
<defs>
<clipPath id="clip0_2403_38">
<rect width="16" height="16" fill="white" transform="matrix(-1 0 0 1 16 0)"/>
</clipPath>
</defs>
</svg>
