<svg width="38" height="38" viewBox="0 0 38 38" fill="none" xmlns="http://www.w3.org/2000/svg">
<path d="M3.34401 23.5599C3.95201 24.3199 5.168 24.4719 5.776 23.5599L8.36 19.7599C8.664 19.3039 8.664 18.6959 8.512 18.2399C8.36 17.7839 7.75201 17.4799 7.29601 17.4799H5.92801C6.23201 15.1999 7.29601 12.9199 9.72801 10.3359C12.008 7.9039 15.2 6.07989 18.544 6.07989C22.192 6.07989 25.536 7.44789 27.816 9.8799C28.272 10.3359 29.032 10.3359 29.488 10.0319L29.64 9.8799C30.4 9.4239 30.4 8.35989 29.792 7.75189C26.904 4.86389 22.952 3.19189 18.544 3.19189C10.184 3.19189 3.34401 9.57589 2.58401 17.6319H1.97601C1.52001 17.6319 0.912005 17.9359 0.760005 18.3919C0.456005 18.8479 0.608005 19.4559 0.912005 19.9119L3.34401 23.5599Z" fill="#C9A9D5"/>
<path d="M32.224 14.44L29.488 18.392C29.184 18.848 29.184 19.456 29.336 19.912C29.64 20.368 30.096 20.672 30.552 20.672H31.464C30.704 27.056 25.232 32.072 18.696 32.072C15.504 32.072 12.768 31.008 10.488 29.184C10.032 28.728 9.27201 28.728 8.81601 29.032L8.66401 29.184C7.90401 29.64 7.90401 30.856 8.51201 31.464C11.248 33.744 14.896 35.264 18.848 35.264C27.056 35.264 33.896 28.88 34.656 20.824H36.024C36.48 20.824 37.088 20.52 37.24 20.064C37.544 19.608 37.392 19 37.088 18.544L34.352 14.592C34.048 13.68 32.832 13.68 32.224 14.44Z" fill="#C9A9D5"/>
<path d="M11.856 22.7999C11.096 24.3199 12.312 26.1439 13.984 26.1439H24.168C25.84 26.1439 27.056 24.3199 26.296 22.7999C25.536 21.2799 24.32 20.0639 22.8 19.3039C22.344 19.1519 21.888 19.1519 21.584 19.3039C20.064 19.9119 18.24 19.9119 16.72 19.3039C16.264 19.1519 15.808 19.1519 15.504 19.3039C13.832 19.9119 12.616 21.2799 11.856 22.7999Z" fill="#C9A9D5"/>
<path d="M19 17.1759C20.976 17.1759 22.648 15.5039 22.648 13.5279C22.648 11.5519 20.976 9.87988 19 9.87988C17.024 9.87988 15.352 11.5519 15.352 13.5279C15.352 15.5039 17.024 17.1759 19 17.1759Z" fill="#C9A9D5"/>
</svg>
