<svg width="28" height="28" viewBox="0 0 28 28" fill="none" xmlns="http://www.w3.org/2000/svg">
<g clip-path="url(#clip0_5288_442)">
<path d="M3.91998 3.80799C-0.448018 8.17599 -0.448018 15.344 3.91998 19.824C6.15998 22.064 9.07198 23.072 11.984 23.072C14.112 23.072 16.24 22.512 18.032 21.28C19.488 23.52 21.168 25.76 21.84 26.32C23.184 27.664 25.312 27.664 26.544 26.32C27.888 24.976 27.776 22.848 26.544 21.616C25.872 20.944 23.744 19.264 21.504 17.808C22.624 16.016 23.296 13.888 23.296 11.648C23.184 1.79199 10.976 -3.24801 3.91998 3.80799ZM11.872 19.712C7.50398 19.712 3.91998 16.128 3.91998 11.76C3.91998 7.39199 7.50398 3.91999 11.872 3.91999C16.24 3.91999 19.712 7.50399 19.712 11.76C19.712 16.24 16.24 19.712 11.872 19.712Z" fill="white"/>
<path d="M13.664 9.51999L10.976 11.312L10.416 10.528C9.96801 9.96799 9.18401 9.85599 8.62401 10.192C8.06401 10.64 7.84001 11.424 8.28801 11.984L9.52001 13.776C9.74401 14.112 10.192 14.336 10.528 14.336C10.752 14.336 10.976 14.224 11.2 14.112L15.008 11.648C15.568 11.2 15.792 10.416 15.344 9.85599C15.12 9.29599 14.224 9.18399 13.664 9.51999Z" fill="white"/>
</g>
<defs>
<clipPath id="clip0_5288_442">
<rect width="28" height="28" fill="white"/>
</clipPath>
</defs>
</svg>
