<svg width="28" height="32" viewBox="0 0 28 32" fill="none" xmlns="http://www.w3.org/2000/svg">
<path d="M19.2491 29.5096C20.762 28.7716 22.1045 27.754 23.2385 26.4845C24.3722 25.215 25.2408 23.758 25.8206 22.1529C26.4208 20.491 26.6833 18.744 26.6001 16.9592C26.5168 15.1744 26.0929 13.4594 25.3405 11.861C24.6139 10.3172 23.6134 8.94694 22.3666 7.78847C21.1193 6.62966 19.6882 5.74145 18.1128 5.14785C17.0886 4.76138 17.109 4.67043 16.0313 4.55772L15.8242 5.54991L14.2026 14.3255L14.0792 15.0294C14.4587 15.0993 14.8107 15.2562 15.1133 15.4801L15.5252 14.8998L20.654 7.67248C22.1042 8.74533 23.3143 10.142 24.1779 11.7626L16.473 16.0024L15.856 16.342C16.0319 16.6723 16.1397 17.0468 16.1583 17.4466L25.612 17.0056C25.7005 18.9029 25.3572 20.7199 24.6718 22.3591L15.9597 18.5745C15.81 18.9311 15.5837 19.248 15.3002 19.5015L15.7646 20.0412L21.5439 26.7602C20.2131 27.952 18.6191 28.8497 16.8551 29.3474L14.5013 20.7365L14.3129 20.0464C14.134 20.0965 13.9473 20.1278 13.7549 20.1368C13.5625 20.1457 13.3727 20.1324 13.1902 20.0984L13.0665 20.8034L11.5244 29.5964C9.72241 29.265 8.05079 28.5196 6.61482 27.4568L11.7439 20.2287L12.1565 19.6477C11.8509 19.4218 11.5962 19.1276 11.4142 18.7861L3.09086 23.366C2.25546 21.7977 1.74558 20.0202 1.65709 18.1229L11.1123 17.6819C11.0936 17.2825 11.1657 16.9 11.3101 16.5544L10.6638 16.2733L2.59698 12.7691C3.30558 11.0749 4.38118 9.57119 5.72525 8.36839L11.5049 15.0873L11.9693 15.6274C12.2494 15.376 12.3626 15.1922 12.7339 15.0872L12.5455 14.3976L10.1523 5.90649L9.82422 4.84789C8.76126 5.06045 9.00386 5.13919 8.02005 5.61895C6.50712 6.35658 5.16493 7.37452 4.03093 8.64402C2.89693 9.91353 2.02793 11.3706 1.44856 12.9757C0.848615 14.6372 0.586519 16.3849 0.669729 18.169C0.75294 19.953 1.17621 21.6688 1.92857 23.2676C2.65483 24.8117 3.65568 26.1816 4.90292 27.3401C6.15016 28.4985 7.58089 29.3867 9.15629 29.9807C10.7874 30.5953 12.5017 30.8661 14.2519 30.7845C16.002 30.7029 17.6834 30.2741 19.2502 29.5099L19.2491 29.5096Z" fill="white"/>
<path d="M13.0011 0C11.4155 0 10.1201 1.29538 10.1201 2.88405C10.1201 4.38108 12.497 6.94432 12.7689 7.23151C12.83 7.29567 12.9156 7.33233 13.0011 7.33233C13.0897 7.33233 13.1753 7.29567 13.2364 7.23151C13.5052 6.94432 15.8852 4.38108 15.8852 2.88405C15.8852 1.29538 14.5898 0 13.0011 0ZM13.0042 3.9289C12.3259 3.9289 11.773 3.37592 11.773 2.69769C11.773 2.0164 12.3259 1.46646 13.0042 1.46646C13.6794 1.46646 14.2323 2.0164 14.2323 2.69769C14.2323 3.37592 13.6794 3.9289 13.0042 3.9289Z" fill="white"/>
<path d="M9.96496 5.34497C4.96329 6.7782 1 11.7909 1 17.4901C1 24.4664 6.65547 30.1219 13.6318 30.1219C20.6082 30.1219 26.2637 24.4664 26.2637 17.4901C26.2637 11.3989 21.5185 6.14933 15.9311 5.03662" stroke="white" stroke-width="2"/>
</svg>
